<svg width="233" height="25" viewBox="0 0 233 25" fill="none" xmlns="http://www.w3.org/2000/svg">
<path d="M19.9344 0.888184L5.19899 24.2369H0.65625L15.4079 0.888184H19.9344Z" fill="white" fill-opacity="0.8"/>
<path d="M36.705 0.888184L21.9696 24.2369H17.4268L32.1785 0.888184H36.705Z" fill="white" fill-opacity="0.8"/>
<path d="M55.5928 10.4295H70.4584V0.888184H74.6918V24.2369H70.4584V14.6955H55.5928V24.2369H51.3594V0.888184H55.5928V10.4295Z" fill="white" fill-opacity="0.8"/>
<path d="M104.162 14.7932C104.162 16.2151 103.918 17.5232 103.43 18.7172C102.941 19.9112 102.263 20.9424 101.394 21.8108C100.526 22.6792 99.4947 23.3576 98.3007 23.8461C97.1175 24.3237 95.8258 24.5625 94.4255 24.5625H88.6941C87.2939 24.5625 85.9967 24.3237 84.8027 23.8461C83.6087 23.3576 82.5775 22.6792 81.7091 21.8108C80.8407 20.9424 80.1568 19.9112 79.6575 18.7172C79.169 17.5232 78.9248 16.2151 78.9248 14.7932V10.3318C78.9248 8.92071 79.169 7.61813 79.6575 6.4241C80.1568 5.21922 80.8407 4.18801 81.7091 3.33048C82.5775 2.46209 83.6087 1.78367 84.8027 1.2952C85.9967 0.806733 87.2939 0.5625 88.6941 0.5625H94.4255C95.8258 0.5625 97.1175 0.806733 98.3007 1.2952C99.4947 1.78367 100.526 2.46209 101.394 3.33048C102.263 4.18801 102.941 5.21922 103.43 6.4241C103.918 7.61813 104.162 8.92071 104.162 10.3318V14.7932ZM99.9289 10.3318C99.9289 9.49601 99.7932 8.7416 99.5218 8.06861C99.2613 7.38475 98.8868 6.80402 98.3983 6.32641C97.9207 5.83794 97.34 5.46345 96.6561 5.20293C95.9832 4.93156 95.2396 4.79588 94.4255 4.79588H88.6941C87.8692 4.79588 87.1148 4.93156 86.4309 5.20293C85.7579 5.46345 85.1772 5.83794 84.6887 6.32641C84.2002 6.80402 83.8203 7.38475 83.549 8.06861C83.2884 8.7416 83.1582 9.49601 83.1582 10.3318V14.7932C83.1582 15.629 83.2884 16.3888 83.549 17.0727C83.8203 17.7457 84.2002 18.3264 84.6887 18.8149C85.1772 19.2925 85.7579 19.667 86.4309 19.9383C87.1148 20.1989 87.8692 20.3291 88.6941 20.3291H94.3929C95.2179 20.3291 95.9669 20.1989 96.6399 19.9383C97.3237 19.667 97.9099 19.2925 98.3983 18.8149C98.8868 18.3264 99.2613 17.7457 99.5218 17.0727C99.7932 16.3888 99.9289 15.629 99.9289 14.7932V10.3318Z" fill="white" fill-opacity="0.8"/>
<path d="M129.123 5.12156H119.793V24.2369H115.56V5.12156H106.214V0.888184H129.123V5.12156Z" fill="white" fill-opacity="0.8"/>
<path d="M155.289 22.1039C155.289 22.4078 155.234 22.69 155.126 22.9506C155.017 23.2111 154.865 23.439 154.67 23.6344C154.485 23.8189 154.263 23.9655 154.002 24.074C153.742 24.1826 153.46 24.2369 153.156 24.2369H137.883C137.492 24.2369 137.069 24.1934 136.613 24.1066C136.168 24.0089 135.723 23.8624 135.278 23.667C134.843 23.4716 134.426 23.2219 134.024 22.918C133.622 22.6032 133.264 22.2287 132.949 21.7945C132.645 21.3495 132.401 20.8393 132.217 20.264C132.032 19.6778 131.94 19.0211 131.94 18.2938V6.8312C131.94 6.44042 131.983 6.02251 132.07 5.57747C132.168 5.12156 132.314 4.67652 132.51 4.24232C132.705 3.79728 132.96 3.37394 133.275 2.97231C133.59 2.57068 133.964 2.2179 134.398 1.91396C134.843 1.59917 135.354 1.34951 135.929 1.16498C136.504 0.980449 137.156 0.888184 137.883 0.888184H155.093V5.12156H137.883C137.329 5.12156 136.906 5.2681 136.613 5.56118C136.32 5.85426 136.173 6.28846 136.173 6.86376V18.2938C136.173 18.8366 136.32 19.2599 136.613 19.5639C136.917 19.8569 137.34 20.0035 137.883 20.0035H151.055V14.6955H139.788V10.4295H153.156C153.46 10.4295 153.742 10.4892 154.002 10.6086C154.263 10.7172 154.485 10.8691 154.67 11.0645C154.865 11.2599 155.017 11.4879 155.126 11.7484C155.234 11.998 155.289 12.2694 155.289 12.5625V22.1039Z" fill="white" fill-opacity="0.8"/>
<path d="M182.61 24.2369H178.377V18.5055H163.495V24.2369H159.261V12.5625C159.261 10.8583 159.554 9.28981 160.141 7.85698C160.727 6.42414 161.541 5.19212 162.583 4.16091C163.625 3.1297 164.857 2.32645 166.279 1.75114C167.701 1.17584 169.253 0.888184 170.936 0.888184H180.477C180.77 0.888184 181.047 0.942458 181.308 1.05101C181.568 1.15955 181.796 1.31152 181.991 1.50691C182.187 1.7023 182.339 1.93025 182.447 2.19076C182.556 2.45128 182.61 2.72808 182.61 3.02116V24.2369ZM163.495 14.2721H178.377V5.12156H170.936C170.806 5.12156 170.529 5.14327 170.105 5.18669C169.693 5.21926 169.21 5.31152 168.656 5.46349C168.114 5.61546 167.538 5.84884 166.93 6.16363C166.322 6.47842 165.763 6.91261 165.253 7.4662C164.743 8.0198 164.32 8.71451 163.983 9.55033C163.658 10.3753 163.495 11.3793 163.495 12.5625V14.2721Z" fill="white" fill-opacity="0.8"/>
<path d="M208.645 5.12156H199.316V24.2369H195.082V5.12156H185.736V0.888184H208.645V5.12156Z" fill="white" fill-opacity="0.8"/>
<path d="M230.968 14.6955H217.601V10.4295H230.968V14.6955ZM232.873 24.2369H217.601C217.014 24.2369 216.374 24.1337 215.679 23.9275C214.985 23.7213 214.339 23.3848 213.742 22.918C213.156 22.4404 212.662 21.8271 212.26 21.0781C211.869 20.3183 211.674 19.3902 211.674 18.2938V3.02116C211.674 2.72808 211.728 2.45128 211.837 2.19076C211.945 1.93025 212.092 1.7023 212.276 1.50691C212.472 1.31152 212.7 1.15955 212.96 1.05101C213.221 0.942458 213.503 0.888184 213.807 0.888184H232.873V5.12156H215.907V18.2938C215.907 18.8474 216.054 19.2708 216.347 19.5639C216.64 19.8569 217.069 20.0035 217.633 20.0035H232.873V24.2369Z" fill="white" fill-opacity="0.8"/>
</svg>
